<svg width="1090" height="334" viewBox="0 0 1090 334" fill="none" xmlns="http://www.w3.org/2000/svg">
<g clip-path="url(#clip0_11530_596808)">
<path d="M15.712 187.732C16.3597 187.801 17.0145 187.731 17.6334 187.529C18.2523 187.326 18.8213 186.995 19.3029 186.557C19.7846 186.119 20.1681 185.585 20.4281 184.988C20.6881 184.392 20.8188 183.747 20.8116 183.096C20.8116 181.745 20.2743 180.449 19.318 179.494C18.3616 178.539 17.0645 178.002 15.712 178.002C14.3595 178.002 13.0624 178.539 12.106 179.494C11.1496 180.449 10.6124 181.745 10.6124 183.096C10.6092 183.746 10.7426 184.389 11.004 184.983C11.2653 185.578 11.6488 186.111 12.1296 186.548C12.6104 186.985 13.1777 187.316 13.7948 187.52C14.412 187.724 15.0651 187.797 15.712 187.732V187.732Z" fill="#158285"/>
<path d="M29.2271 187.732C29.8748 187.801 30.5296 187.731 31.1485 187.529C31.7674 187.326 32.3364 186.995 32.8181 186.557C33.2997 186.119 33.6832 185.585 33.9432 184.988C34.2032 184.392 34.334 183.747 34.3268 183.096C34.3268 181.745 33.7895 180.449 32.8331 179.494C31.8767 178.539 30.5796 178.002 29.2271 178.002C27.8746 178.002 26.5775 178.539 25.6211 179.494C24.6648 180.449 24.1275 181.745 24.1275 183.096C24.1243 183.746 24.2577 184.389 24.5191 184.983C24.7805 185.578 25.164 186.111 25.6447 186.548C26.1255 186.985 26.6929 187.316 27.31 187.52C27.9271 187.724 28.5803 187.797 29.2271 187.732V187.732Z" fill="#158285"/>
<path d="M41.1944 237.836C40.552 237.784 39.9057 237.863 39.2954 238.07C38.6851 238.277 38.1237 238.607 37.6458 239.039C37.168 239.471 36.7838 239.996 36.517 240.582C36.2502 241.168 36.1065 241.803 36.0947 242.446C36.0947 243.798 36.632 245.093 37.5884 246.049C38.5447 247.004 39.8419 247.541 41.1944 247.541C42.5469 247.541 43.844 247.004 44.8003 246.049C45.7567 245.093 46.294 243.798 46.294 242.446C46.2822 241.803 46.1385 241.168 45.8717 240.582C45.6049 239.996 45.2207 239.471 44.7429 239.039C44.265 238.607 43.7036 238.277 43.0933 238.07C42.483 237.863 41.8367 237.784 41.1944 237.836V237.836Z" fill="#158285"/>
<path d="M54.5806 237.834C53.9382 237.782 53.292 237.862 52.6817 238.068C52.0713 238.275 51.5099 238.605 51.0321 239.037C50.5542 239.469 50.1701 239.994 49.9033 240.58C49.6365 241.166 49.4928 241.801 49.481 242.445C49.481 243.796 50.0182 245.092 50.9746 246.047C51.931 247.002 53.2281 247.539 54.5806 247.539C55.9331 247.539 57.2302 247.002 58.1866 246.047C59.1429 245.092 59.6802 243.796 59.6802 242.445C59.6721 241.8 59.5309 241.164 59.2654 240.576C58.9999 239.988 58.6158 239.461 58.1371 239.028C57.6584 238.595 57.0955 238.266 56.4835 238.061C55.8716 237.855 55.2237 237.778 54.5806 237.834V237.834Z" fill="#158285"/>
<path d="M86.1717 212.744C86.0692 211.406 86.2523 210.061 86.709 208.799C87.1657 207.537 87.8855 206.386 88.8209 205.423C89.7562 204.46 90.8856 203.706 92.1345 203.212C93.3833 202.717 94.723 202.493 96.065 202.555C99.5086 202.677 102.884 203.547 105.958 205.102L108.508 197.613C104.387 195.686 99.9232 194.595 95.3765 194.404C85.3812 194.404 78.3947 200.466 78.3947 211.292C78.5565 215.423 79.4187 219.497 80.9446 223.34H63.6568V194.913H55.5994V223.391H33.824V194.913H20.7944C8.30035 194.913 0.0644531 202.555 0.0644531 213.253C0.0644531 223.952 7.99437 231.44 19.7235 231.44H109.961V223.34H89.9199C87.6679 220.246 86.3655 216.564 86.1717 212.744V212.744ZM25.8941 223.391H19.0096C12.4821 223.391 7.66289 219.316 7.66289 213.202C7.66289 206.987 12.4056 203.013 19.0096 203.013H25.8941V223.391Z" fill="#158285"/>
<path d="M181.96 189.388C182.608 189.456 183.262 189.387 183.881 189.184C184.5 188.982 185.069 188.65 185.551 188.213C186.033 187.775 186.416 187.24 186.676 186.643C186.936 186.047 187.067 185.402 187.06 184.752C187.06 183.401 186.522 182.105 185.566 181.149C184.61 180.194 183.313 179.657 181.96 179.657C180.607 179.657 179.31 180.194 178.354 181.149C177.398 182.105 176.86 183.401 176.86 184.752C176.861 185.4 176.997 186.041 177.26 186.634C177.523 187.226 177.906 187.758 178.386 188.194C178.866 188.63 179.432 188.962 180.047 189.167C180.662 189.373 181.314 189.448 181.96 189.388V189.388Z" fill="#158285"/>
<path d="M195.411 189.387C196.047 189.434 196.687 189.349 197.289 189.138C197.892 188.927 198.444 188.595 198.912 188.161C199.38 187.727 199.753 187.201 200.008 186.616C200.263 186.032 200.395 185.401 200.395 184.763C200.395 184.126 200.263 183.495 200.008 182.91C199.753 182.326 199.38 181.8 198.912 181.366C198.444 180.932 197.892 180.599 197.289 180.388C196.687 180.177 196.047 180.093 195.411 180.14C194.768 180.088 194.122 180.168 193.512 180.374C192.901 180.581 192.34 180.911 191.862 181.343C191.384 181.775 191 182.3 190.733 182.886C190.467 183.472 190.323 184.107 190.311 184.751C190.312 185.399 190.448 186.04 190.711 186.632C190.973 187.225 191.357 187.757 191.837 188.193C192.317 188.629 192.882 188.961 193.498 189.166C194.113 189.372 194.765 189.447 195.411 189.387V189.387Z" fill="#158285"/>
<path d="M231.932 194.098C227.23 194.233 222.633 195.519 218.545 197.843L221.478 205.229C224.402 203.224 227.874 202.165 231.422 202.198C241.213 202.198 243.1 213.559 248.582 223.391H207.53V194.913H199.473V223.391H177.672V213.533C177.672 201.893 170.507 194.098 159.823 194.098C149.063 194.098 141.974 201.867 141.974 213.482V213.33C141.974 220.284 138.609 223.391 132.209 223.391H126.599V180.088H118.542V231.491H132.209C138.099 231.491 143.198 230.039 145.493 225.582C148.604 229.937 153.678 231.491 159.951 231.491H259.393V223.391C251.693 220.003 251.54 194.098 231.932 194.098ZM169.614 223.391H159.721C158.382 223.515 157.032 223.341 155.769 222.881C154.505 222.421 153.359 221.688 152.413 220.733C151.467 219.779 150.745 218.626 150.298 217.359C149.851 216.092 149.69 214.742 149.828 213.406C149.828 206.681 153.831 202.249 159.721 202.249C165.611 202.249 169.538 206.681 169.538 213.406L169.614 223.391Z" fill="#158285"/>
<path d="M237.082 237.835C236.421 237.75 235.749 237.807 235.112 238.001C234.474 238.196 233.886 238.524 233.385 238.964C232.885 239.404 232.484 239.946 232.209 240.552C231.935 241.159 231.792 241.817 231.792 242.483C231.792 243.149 231.935 243.807 232.209 244.414C232.484 245.021 232.885 245.562 233.385 246.002C233.886 246.442 234.474 246.77 235.112 246.965C235.749 247.16 236.421 247.217 237.082 247.132C237.732 247.193 238.388 247.116 239.007 246.908C239.626 246.699 240.194 246.363 240.675 245.921C241.156 245.479 241.538 244.942 241.798 244.343C242.057 243.744 242.188 243.098 242.182 242.445C242.17 241.801 242.026 241.167 241.759 240.581C241.492 239.995 241.108 239.469 240.631 239.037C240.153 238.605 239.591 238.276 238.981 238.069C238.371 237.862 237.724 237.782 237.082 237.835V237.835Z" fill="#158285"/>
<path d="M297.858 223.392H269.274V231.518H305.915V180.141H297.858V223.392Z" fill="#158285"/>
<path d="M285.899 185.184H277.79V219.087H285.899V185.184Z" fill="#158285"/>
<path d="M324.458 180.141H316.4V231.518H324.458V180.141Z" fill="#158285"/>
<path d="M353.108 183.096C353.108 184.448 353.645 185.743 354.602 186.699C355.558 187.654 356.855 188.191 358.208 188.191C359.56 188.191 360.857 187.654 361.813 186.699C362.77 185.743 363.307 184.448 363.307 183.096C363.307 181.745 362.77 180.449 361.813 179.494C360.857 178.539 359.56 178.002 358.208 178.002C356.855 178.002 355.558 178.539 354.602 179.494C353.645 180.449 353.108 181.745 353.108 183.096Z" fill="#158285"/>
<path d="M366.559 183.096C366.559 184.448 367.096 185.743 368.053 186.699C369.009 187.654 370.306 188.191 371.659 188.191C373.011 188.191 374.308 187.654 375.265 186.699C376.221 185.743 376.758 184.448 376.758 183.096C376.758 181.745 376.221 180.449 375.265 179.494C374.308 178.539 373.011 178.002 371.659 178.002C370.306 178.002 369.009 178.539 368.053 179.494C367.096 180.449 366.559 181.745 366.559 183.096Z" fill="#158285"/>
<path d="M383.497 237.836C382.854 237.784 382.208 237.863 381.598 238.07C380.987 238.277 380.426 238.607 379.948 239.039C379.47 239.471 379.086 239.996 378.819 240.582C378.552 241.168 378.409 241.803 378.397 242.446C378.397 243.798 378.934 245.093 379.891 246.049C380.847 247.004 382.144 247.541 383.497 247.541C384.849 247.541 386.146 247.004 387.103 246.049C388.059 245.093 388.596 243.798 388.596 242.446C388.584 241.803 388.441 241.168 388.174 240.582C387.907 239.996 387.523 239.471 387.045 239.039C386.567 238.607 386.006 238.277 385.396 238.07C384.785 237.863 384.139 237.784 383.497 237.836V237.836Z" fill="#158285"/>
<path d="M396.98 237.834C396.337 237.782 395.691 237.862 395.081 238.068C394.47 238.275 393.909 238.605 393.431 239.037C392.953 239.469 392.569 239.994 392.302 240.58C392.035 241.166 391.892 241.801 391.88 242.445C391.88 243.796 392.417 245.092 393.374 246.047C394.33 247.002 395.627 247.539 396.98 247.539C398.332 247.539 399.629 247.002 400.585 246.047C401.542 245.092 402.079 243.796 402.079 242.445C402.071 241.8 401.93 241.164 401.664 240.576C401.399 239.988 401.015 239.461 400.536 239.028C400.057 238.595 399.494 238.266 398.882 238.061C398.27 237.855 397.623 237.778 396.98 237.834Z" fill="#158285"/>
<path d="M469.12 189.435C469.772 189.5 470.429 189.427 471.05 189.22C471.67 189.012 472.24 188.677 472.722 188.234C473.204 187.791 473.586 187.252 473.844 186.651C474.102 186.051 474.23 185.402 474.22 184.749C474.302 183.728 474.074 182.706 473.566 181.816C473.058 180.926 472.293 180.21 471.371 179.762C470.45 179.313 469.414 179.152 468.399 179.3C467.385 179.448 466.439 179.898 465.684 180.592C464.929 181.285 464.402 182.19 464.17 183.188C463.937 184.185 464.012 185.23 464.383 186.185C464.754 187.139 465.404 187.96 466.249 188.54C467.095 189.12 468.095 189.432 469.12 189.435V189.435Z" fill="#158285"/>
<path d="M496.2 180.14C495.557 180.088 494.911 180.168 494.301 180.374C493.69 180.581 493.129 180.911 492.651 181.343C492.173 181.775 491.789 182.3 491.522 182.886C491.256 183.472 491.112 184.107 491.1 184.751C491.1 186.102 491.637 187.397 492.594 188.353C493.55 189.308 494.847 189.845 496.2 189.845C497.552 189.845 498.849 189.308 499.806 188.353C500.762 187.397 501.299 186.102 501.299 184.751C501.288 184.107 501.144 183.472 500.877 182.886C500.61 182.3 500.226 181.775 499.748 181.343C499.27 180.911 498.709 180.581 498.099 180.374C497.488 180.168 496.842 180.088 496.2 180.14V180.14Z" fill="#158285"/>
<path d="M505.283 184.751C505.186 185.773 505.4 186.801 505.897 187.7C506.395 188.599 507.153 189.327 508.072 189.788C508.991 190.248 510.028 190.421 511.047 190.282C512.066 190.144 513.019 189.701 513.782 189.012C514.544 188.322 515.08 187.419 515.32 186.42C515.559 185.421 515.49 184.373 515.123 183.414C514.755 182.454 514.106 181.628 513.26 181.044C512.414 180.46 511.411 180.145 510.383 180.14C509.741 180.088 509.094 180.168 508.484 180.374C507.874 180.581 507.312 180.911 506.834 181.343C506.357 181.775 505.972 182.3 505.706 182.886C505.439 183.472 505.295 184.107 505.283 184.751V184.751Z" fill="#158285"/>
<path d="M540.565 223.392H523.66V194.915H515.602V223.392H491.175V194.915H483.118V223.392H460.17V213.535C460.17 201.894 453.005 194.099 442.321 194.099C431.561 194.099 424.472 201.868 424.472 213.484V213.331C424.472 220.285 421.132 223.392 414.732 223.392H406.521V194.915H398.184V223.392H376.408V194.915H363.226C350.731 194.915 342.496 202.556 342.496 213.254C342.496 223.953 350.426 231.442 362.155 231.442H414.451C420.341 231.442 425.441 229.99 427.736 225.532C430.847 229.888 435.921 231.442 442.193 231.442H548.623V180.141H540.565V223.392ZM368.274 223.392H361.441C354.913 223.392 350.094 219.317 350.094 213.204C350.094 206.988 354.862 203.015 361.441 203.015H368.274V223.392ZM452.01 223.392H442.117C440.778 223.516 439.428 223.342 438.165 222.882C436.901 222.423 435.755 221.689 434.809 220.735C433.863 219.78 433.141 218.628 432.694 217.361C432.247 216.094 432.086 214.744 432.224 213.407C432.224 206.683 436.227 202.25 442.117 202.25C448.032 202.25 451.959 206.683 451.959 213.407L452.01 223.392Z" fill="#158285"/>
<path d="M567.121 180.141H559.063V231.518H567.121V180.141Z" fill="#158285"/>
<path d="M594.721 194.915C582.227 194.915 573.966 202.557 573.966 213.255C573.966 223.953 581.896 231.442 593.625 231.442H599.77C599.566 235.874 596.455 237.275 592.12 237.275C588.51 237.253 584.924 236.677 581.488 235.569L583.12 244.127C586.158 244.97 589.299 245.39 592.452 245.375C602.779 245.375 607.98 241.58 607.98 229.353V194.915H594.721ZM599.821 213.026V223.393H592.987C586.46 223.393 581.641 219.317 581.641 213.204C581.641 206.989 586.409 203.015 592.987 203.015H599.821V213.026Z" fill="#158285"/>
<path d="M422.575 130.977C422.575 119.387 417.246 113.426 405.389 113.426H399.754V121.476H406.537C412.121 121.476 414.977 124.328 414.977 130.212V141.904H392.589V150.004H422.575V130.977Z" fill="#158285"/>
<path d="M443.091 148.552V113.426H434.957V149.877C434.957 154.971 432.611 156.653 429.194 156.653C427.537 156.653 426.16 156.525 424.095 156.347L423.33 163.377C425.002 163.759 426.713 163.947 428.429 163.938C437.073 163.938 443.091 160.524 443.091 148.552Z" fill="#158285"/>
<path d="M460.514 98.6558H452.457V150.033H460.514V98.6558Z" fill="#158285"/>
<path d="M487.044 150.005H493.163C492.985 154.438 489.874 155.838 485.514 155.838C481.895 155.818 478.3 155.243 474.856 154.132L476.513 162.69C478.975 163.533 481.561 163.954 484.163 163.939C493.852 163.939 500.634 160.602 501.195 150.005H518.458C524.016 150.005 528.784 148.375 530.977 144.121C534.062 148.477 539.137 150.031 545.435 150.031H588.195V98.7808H580.138V142.083H563.36V132.226C563.36 120.585 556.195 112.79 545.511 112.79C534.751 112.79 527.662 120.432 527.662 132.175V132.022C527.662 138.976 524.297 142.211 517.897 142.211H501.501V113.427H488.319C475.825 113.427 467.589 121.069 467.589 131.767C467.385 142.517 475.315 150.005 487.044 150.005ZM535.49 131.869C535.49 125.144 539.468 120.712 545.384 120.712C551.274 120.712 555.2 125.144 555.2 131.869V141.905H545.333C543.993 142.034 542.641 141.863 541.375 141.405C540.109 140.947 538.961 140.213 538.014 139.258C537.067 138.302 536.345 137.148 535.9 135.879C535.454 134.609 535.297 133.257 535.439 131.92L535.49 131.869ZM474.983 131.869C474.983 125.654 479.726 121.68 486.33 121.68H493.163V131.869V142.211H486.406C479.879 142.211 475.06 138.135 475.06 132.022L474.983 131.869Z" fill="#158285"/>
<path d="M606.731 98.6558H598.674V150.033H606.731V98.6558Z" fill="#158285"/>
<path d="M165.671 106.246C166.316 106.314 166.969 106.246 167.586 106.045C168.203 105.844 168.771 105.515 169.252 105.08C169.734 104.645 170.118 104.113 170.379 103.52C170.641 102.926 170.774 102.284 170.771 101.636C170.771 100.285 170.233 98.989 169.277 98.0336C168.321 97.0782 167.023 96.5415 165.671 96.5415C164.318 96.5415 163.021 97.0782 162.065 98.0336C161.109 98.989 160.571 100.285 160.571 101.636C160.572 102.283 160.708 102.923 160.971 103.515C161.234 104.106 161.618 104.636 162.098 105.07C162.578 105.505 163.144 105.834 163.76 106.036C164.375 106.239 165.026 106.31 165.671 106.246V106.246Z" fill="#158285"/>
<path d="M152.187 106.246C152.833 106.314 153.486 106.246 154.103 106.045C154.72 105.844 155.288 105.515 155.769 105.08C156.25 104.645 156.634 104.113 156.896 103.52C157.157 102.926 157.291 102.284 157.287 101.636C157.287 100.285 156.75 98.989 155.793 98.0336C154.837 97.0782 153.54 96.5415 152.187 96.5415C150.835 96.5415 149.538 97.0782 148.582 98.0336C147.625 98.989 147.088 100.285 147.088 101.636C147.088 102.283 147.224 102.923 147.487 103.515C147.75 104.106 148.134 104.636 148.615 105.07C149.095 105.505 149.661 105.834 150.276 106.036C150.892 106.239 151.543 106.31 152.187 106.246V106.246Z" fill="#158285"/>
<path d="M156.102 150.004H200.189V113.426H192.131V141.904H170.356V113.426H157.199C144.705 113.426 136.443 121.068 136.443 131.766C136.443 142.516 144.373 150.004 156.102 150.004ZM144.118 131.766C144.118 125.551 148.886 121.577 155.465 121.577H162.298V141.955H155.465C148.937 141.955 144.118 137.88 144.118 131.766Z" fill="#158285"/>
<path d="M272.085 102.042C272.683 102.102 273.287 102.037 273.857 101.849C274.428 101.661 274.953 101.356 275.398 100.952C275.843 100.549 276.198 100.056 276.44 99.5065C276.682 98.9569 276.805 98.3626 276.802 97.7623C276.895 96.81 276.696 95.852 276.234 95.0144C275.771 94.1767 275.065 93.4987 274.209 93.0695C273.353 92.6402 272.387 92.4799 271.438 92.6097C270.489 92.7394 269.602 93.1531 268.893 93.7964C268.184 94.4396 267.687 95.2821 267.466 96.2132C267.246 97.1442 267.313 98.1202 267.658 99.0125C268.003 99.9049 268.611 100.672 269.401 101.213C270.192 101.753 271.127 102.042 272.085 102.042Z" fill="#158285"/>
<path d="M265.597 112.206C266.463 112.132 267.289 111.808 267.975 111.273C268.66 110.739 269.176 110.017 269.458 109.196C269.741 108.374 269.778 107.489 269.566 106.646C269.355 105.804 268.902 105.041 268.264 104.451C267.627 103.86 266.831 103.468 265.974 103.321C265.117 103.174 264.236 103.278 263.437 103.622C262.639 103.966 261.958 104.534 261.476 105.258C260.995 105.981 260.735 106.829 260.727 107.697C260.725 108.32 260.852 108.937 261.101 109.509C261.35 110.081 261.714 110.595 262.172 111.018C262.63 111.442 263.17 111.766 263.76 111.971C264.349 112.175 264.975 112.255 265.597 112.206V112.206Z" fill="#158285"/>
<path d="M273.779 107.699C273.687 108.68 273.893 109.667 274.372 110.529C274.851 111.391 275.579 112.089 276.462 112.53C277.344 112.972 278.34 113.136 279.317 113.003C280.295 112.869 281.21 112.443 281.941 111.781C282.672 111.119 283.186 110.252 283.415 109.293C283.644 108.334 283.578 107.328 283.225 106.407C282.872 105.487 282.248 104.694 281.436 104.134C280.625 103.573 279.662 103.271 278.675 103.267C278.057 103.21 277.433 103.283 276.844 103.479C276.255 103.676 275.714 103.993 275.253 104.409C274.793 104.826 274.425 105.333 274.171 105.9C273.917 106.466 273.784 107.078 273.779 107.699Z" fill="#158285"/>
<path d="M355.374 98.7808H347.316V142.083H331.533V113.427H323.476V141.905H301.7V113.427H293.643V141.905H276.712V118.522H268.604V141.905H253.891V118.522H245.834V141.905H225.053V112.663H216.944V149.878C216.944 154.972 214.599 156.654 211.182 156.654C209.524 156.654 208.122 156.526 206.082 156.348L205.343 163.378C207.015 163.761 208.727 163.949 210.442 163.939C218.678 163.939 224.696 160.78 225.078 150.005H355.476L355.374 98.7808Z" fill="#158285"/>
<path d="M373.874 98.6558H365.817V150.033H373.874V98.6558Z" fill="#158285"/>
<path d="M182.06 160.983C182.06 159.632 181.523 158.336 180.566 157.381C179.61 156.425 178.313 155.889 176.96 155.889C175.608 155.889 174.311 156.425 173.354 157.381C172.398 158.336 171.861 159.632 171.861 160.983C171.861 162.334 172.398 163.63 173.354 164.585C174.311 165.541 175.608 166.078 176.96 166.078C178.313 166.078 179.61 165.541 180.566 164.585C181.523 163.63 182.06 162.334 182.06 160.983Z" fill="#158285"/>
<path d="M195.511 160.983C195.511 159.632 194.974 158.336 194.017 157.381C193.061 156.425 191.764 155.889 190.411 155.889C189.059 155.889 187.762 156.425 186.805 157.381C185.849 158.336 185.312 159.632 185.312 160.983C185.312 162.334 185.849 163.63 186.805 164.585C187.762 165.541 189.059 166.078 190.411 166.078C191.764 166.078 193.061 165.541 194.017 164.585C194.974 163.63 195.511 162.334 195.511 160.983Z" fill="#158285"/>
<path d="M312.459 156.426C311.818 156.377 311.173 156.459 310.564 156.668C309.955 156.876 309.395 157.206 308.918 157.637C308.441 158.068 308.057 158.592 307.789 159.176C307.521 159.761 307.375 160.394 307.359 161.036C307.262 162.059 307.476 163.087 307.974 163.986C308.471 164.885 309.229 165.612 310.148 166.073C311.067 166.534 312.104 166.706 313.123 166.568C314.142 166.43 315.096 165.987 315.858 165.297C316.62 164.608 317.156 163.705 317.396 162.706C317.635 161.706 317.566 160.658 317.199 159.699C316.831 158.74 316.182 157.914 315.336 157.33C314.49 156.745 313.487 156.43 312.459 156.426Z" fill="#158285"/>
<path d="M822.02 85.2825C823.703 85.5117 825.385 85.8174 827.119 86.0976C834.841 71.884 843.845 58.4043 854.02 45.826C828.367 25.8693 799.533 10.3694 768.729 -0.0239258L822.02 85.2825ZM959.709 193.463L871.868 165.01L975.059 329.994C981.144 283.912 975.866 237.042 959.684 193.463H959.709Z" fill="#158285"/>
<path d="M815.727 129.908C853.77 69.0806 903.364 24.6826 975.09 0L871.899 165.009L768.708 329.992C759.478 254.722 777.684 190.736 815.727 129.908Z" fill="#F7941D"/>
<path d="M666.928 98.4502L776.698 134.111C788.336 127.678 800.293 121.838 812.523 116.612C814.104 112.74 815.803 108.868 817.622 104.997C820.606 98.5011 823.818 92.2604 827.159 86.0961C773.541 77.0649 718.524 81.3068 666.928 98.4502V98.4502ZM967.067 134.111L871.882 165.009L1076.84 231.542C1048.01 191.253 1010.5 157.941 967.067 134.06V134.111Z" fill="#2BB574"/>
<path d="M666.928 231.493L784.067 193.463C788.313 182.008 793.217 170.807 798.754 159.916C802.161 145.133 806.766 130.651 812.523 116.613C754.463 141.449 705.838 177.746 666.928 231.493ZM921.731 85.2824L871.882 165.01L1076.84 98.5025C1026.91 81.8768 973.751 77.3455 921.731 85.2824V85.2824Z" fill="#FCB614"/>
</g>
<defs>
<clipPath id="clip0_11530_596808">
<rect width="1090" height="334" fill="white"/>
</clipPath>
</defs>
</svg>
