<svg width="980" height="484" viewBox="0 0 980 484" fill="none" xmlns="http://www.w3.org/2000/svg">
<g clip-path="url(#clip0_11530_596753)">
<path d="M296.692 297.793C294.202 300.782 291.053 303.156 287.492 304.727C284.284 306.044 280.85 306.727 277.382 306.737H258.087C247.482 307.304 236.962 304.572 227.974 298.918C224.25 296.3 221.261 292.77 219.292 288.668C217.324 284.565 216.441 280.027 216.73 275.486V4.9428C216.726 3.70667 216.233 2.5223 215.359 1.64821C214.484 0.774128 213.298 0.281472 212.061 0.277832H182.658C181.432 0.312281 180.265 0.815396 179.399 1.68334C178.533 2.55128 178.035 3.7178 178.004 4.9428V332.567C178.857 341.67 177.604 350.847 174.344 359.39C171.084 367.933 165.904 375.614 159.203 381.839C145.319 392.272 128.266 397.612 110.907 396.964C102.647 396.89 94.4265 395.831 86.4185 393.811C78.1883 391.581 70.4175 387.91 63.4696 382.971C56.1208 377.58 50.1926 370.486 46.1939 362.3C41.4287 352.009 39.1387 340.747 39.5055 329.414C39.4386 315.862 42.0085 302.426 47.0723 289.854C51.4428 278.837 56.7533 268.217 62.9456 258.109C63.3334 257.659 63.6078 257.122 63.7451 256.543C63.8824 255.965 63.8793 255.363 63.7354 254.786C63.6109 254.209 63.3485 253.67 62.9707 253.216C62.5929 252.761 62.1098 252.405 61.5644 252.177L36.352 238.316C33.1781 236.542 31.052 236.676 29.9256 238.316C21.026 251.309 13.9725 265.473 8.96666 280.402C2.94382 297.132 -0.0802949 314.791 0.0302025 332.569C-0.32054 347.273 2.33818 361.894 7.84358 375.535C12.7202 387.504 20.1634 398.26 29.6502 407.045C39.4811 415.91 51.0986 422.568 63.722 426.568C78.2366 431.184 93.4006 433.44 108.632 433.248C137.836 435.224 166.643 425.624 188.813 406.528C198.357 396.817 205.77 385.224 210.575 372.489C215.381 359.754 217.475 346.157 216.722 332.567V327.025C221.367 332.066 227.081 336.005 233.445 338.555C239.81 341.106 246.665 342.203 253.509 341.765H274.082C283.586 341.667 293.037 340.355 302.207 337.859C308.624 336.167 314.525 332.922 319.391 328.412C319.541 328.264 319.66 328.087 319.741 327.892C319.822 327.697 319.864 327.488 319.864 327.277C319.864 327.066 319.822 326.857 319.741 326.662C319.66 326.467 319.541 326.291 319.391 326.142C310.866 316.978 304.935 305.713 302.207 293.502C302.119 293.187 301.93 292.91 301.668 292.714C301.406 292.517 301.086 292.413 300.759 292.416C300.432 292.413 300.115 292.519 299.855 292.717C299.595 292.915 299.408 293.194 299.325 293.51C298.554 295.009 297.663 296.444 296.659 297.799L296.692 297.793Z" fill="#2D2E80"/>
<path d="M946.207 154.646H916.853C916.229 154.559 915.592 154.614 914.992 154.809C914.393 155.003 913.846 155.331 913.391 155.767C912.937 156.204 912.588 156.738 912.37 157.329C912.153 157.92 912.073 158.552 912.135 159.179L912.168 282.42C912.883 289.187 911.028 295.976 906.973 301.443C904.643 303.389 901.953 304.858 899.055 305.765C896.157 306.672 893.109 307 890.084 306.729H853.267C843.124 307.158 833.056 304.804 824.156 299.923C820.406 297.78 817.274 294.704 815.065 290.995C812.856 287.285 811.644 283.068 811.548 278.752V236.414C811.548 208.187 804.091 187.522 789.456 174.416C773.615 160.807 753.182 153.736 732.31 154.638H691.44L774.182 57.617C774.797 56.5273 774.968 55.2424 774.66 54.0299C774.495 53.4297 774.21 52.8689 773.824 52.3809C773.437 51.893 772.955 51.488 772.408 51.19L750.354 32.7938C749.365 32.1844 748.174 31.9882 747.041 32.2482C745.908 32.5081 744.922 33.2031 744.298 34.1829L643.387 152.748L640.89 155.769C639.862 157.013 639.291 158.571 639.272 160.184L639.228 185.389C639.157 186.013 639.232 186.645 639.449 187.235C639.666 187.825 640.017 188.356 640.476 188.785C640.922 189.223 641.461 189.552 642.054 189.749C642.646 189.946 643.278 190.004 643.897 189.92H717.947C752.915 189.92 770.405 205.42 770.418 236.418V264.903C770.475 271.522 770.006 278.136 769.015 284.681C768.369 289.317 766.442 293.681 763.452 297.285C760.315 300.774 756.167 303.198 751.585 304.218C744.765 305.739 737.782 306.413 730.796 306.224H610.837C607.83 306.495 604.8 306.167 601.921 305.258C599.043 304.349 596.374 302.878 594.07 300.93C589.918 295.506 588.02 288.691 588.77 281.904V4.70051C588.864 4.0676 588.808 3.42147 588.604 2.81479C588.401 2.20811 588.056 1.65811 587.599 1.21008C587.146 0.758282 586.593 0.417649 585.986 0.214531C585.38 0.0114122 584.734 -0.0486555 584.101 0.0393836H554.743C554.108 -0.0473043 553.462 0.0134199 552.855 0.216455C552.247 0.419491 551.695 0.759303 551.24 1.21008C550.786 1.66085 550.441 2.21045 550.233 2.81575C550.025 3.42105 549.96 4.06585 550.042 4.70051V284.444C548.818 300.142 553.299 315.754 562.666 328.416C568.168 333.558 574.707 337.466 581.843 339.879C588.979 342.292 596.549 343.155 604.046 342.41H745.149C757.242 342.844 769.299 340.874 780.624 336.613C790.052 332.603 797.74 325.366 802.307 316.201C805.548 324.685 811.848 331.652 819.968 335.733C828.569 340.202 838.136 342.496 847.831 342.412H896.145C903.634 343.164 911.199 342.304 918.329 339.891C925.458 337.477 931.987 333.565 937.477 328.418C946.879 315.774 951.372 300.153 950.127 284.45V158.433C950.055 157.43 949.616 156.489 948.893 155.79C948.169 155.091 947.213 154.684 946.207 154.646Z" fill="#2D2E80"/>
<path d="M501.335 342.65V216.638C501.335 208.364 499.703 200.171 496.534 192.527C493.365 184.883 488.721 177.938 482.865 172.087C477.009 166.237 470.056 161.597 462.405 158.431C454.754 155.266 446.554 153.637 438.273 153.639H316.218V279.645C316.213 294.607 321.538 309.083 331.242 320.48C333.121 322.616 334.895 324.38 336.651 326.146C348.251 336.676 363.359 342.515 379.031 342.526L501.335 342.65ZM355.454 279.643V193.319H438.429C444.727 193.321 450.769 195.814 455.233 200.253C459.697 204.692 462.22 210.716 462.252 217.008V303.333H379.126C372.93 303.233 367.021 300.709 362.668 296.302C358.316 291.895 355.867 285.958 355.849 279.767L355.454 279.643Z" fill="#2D2E80"/>
<path d="M511.714 387.38H446.223C446.042 387.368 445.862 387.394 445.692 387.457C445.522 387.52 445.366 387.619 445.237 387.746C445.1 387.874 444.996 388.034 444.935 388.211C444.873 388.388 444.855 388.578 444.883 388.763L444.867 397.467C444.867 398.468 444.866 398.846 446.223 398.846H471.472C471.594 398.825 471.719 398.833 471.836 398.869C471.954 398.905 472.063 398.968 472.152 399.053C472.242 399.138 472.307 399.245 472.341 399.364C472.376 399.482 472.378 399.608 472.349 399.727V479.999C472.349 481.013 472.348 481.379 473.613 481.379H483.198C484.2 481.379 484.579 481.379 484.579 479.999V399.727C484.578 399.61 484.599 399.494 484.643 399.385C484.687 399.277 484.754 399.178 484.838 399.096C484.921 399.014 485.019 398.949 485.128 398.906C485.238 398.863 485.356 398.843 485.473 398.846H510.701C510.889 398.869 511.079 398.848 511.258 398.785C511.437 398.722 511.599 398.619 511.732 398.483C511.983 398.204 512.117 397.838 512.103 397.463V388.509C512.138 388.305 512.121 388.095 512.057 387.898C511.993 387.701 511.882 387.522 511.734 387.378L511.714 387.38Z" fill="#2D2E80"/>
<path d="M540.115 413.733C535.831 413.703 531.567 414.337 527.478 415.615C524.054 416.557 520.841 418.142 518.01 420.284C517.813 420.56 517.708 420.891 517.711 421.23C517.714 421.568 517.824 421.898 518.025 422.17L521.68 428.595C521.68 429.354 522.805 429.354 523.714 428.595C525.718 427.172 527.908 426.029 530.223 425.199C533.28 424.215 536.48 423.744 539.691 423.806C544.132 423.369 548.586 424.484 552.297 426.959C553.535 428.281 554.471 429.855 555.041 431.573C555.61 433.291 555.798 435.112 555.595 436.91L555.58 441.7C555.58 441.7 555.58 442.581 554.84 442.581H539.707C532.991 442.195 526.322 443.91 520.628 447.488C518.298 449.308 516.457 451.676 515.269 454.381C514.08 457.087 513.58 460.044 513.816 462.989C513.726 465.987 514.339 468.964 515.604 471.684C516.67 474.104 518.258 476.258 520.256 477.992C522.327 479.699 524.74 480.946 527.332 481.648C530.194 482.536 533.179 482.961 536.176 482.907C540.52 483.098 544.848 482.233 548.784 480.386C551.728 479.073 554.223 476.93 555.965 474.219H555.95V480.01C555.95 480.891 555.949 481.399 557.214 481.399H565.428C565.616 481.42 565.807 481.398 565.986 481.336C566.165 481.274 566.328 481.173 566.462 481.039C566.597 480.906 566.699 480.745 566.763 480.566C566.826 480.388 566.849 480.198 566.83 480.01L566.815 436.161C567.111 433.01 566.736 429.832 565.717 426.836C564.697 423.839 563.054 421.092 560.897 418.774C554.801 414.653 547.424 412.863 540.115 413.733V413.733ZM554.865 460.098C554.979 461.936 554.634 463.773 553.862 465.445C553.09 467.117 551.915 468.572 550.442 469.678C546.762 472.226 542.315 473.426 537.852 473.078C534.2 473.322 530.564 472.394 527.478 470.429C526.296 469.545 525.356 468.377 524.744 467.033C524.133 465.69 523.871 464.214 523.982 462.743C523.847 461.136 524.135 459.523 524.82 458.063C525.504 456.604 526.56 455.349 527.881 454.424C531.763 452.434 536.121 451.56 540.471 451.899H553.833C553.941 451.903 554.048 451.93 554.145 451.977C554.242 452.025 554.328 452.093 554.397 452.176C554.467 452.259 554.519 452.355 554.549 452.459C554.579 452.563 554.587 452.673 554.573 452.78L554.865 460.098Z" fill="#2D2E80"/>
<path d="M618.919 440.174L639.325 416.616C639.409 416.46 639.452 416.286 639.452 416.109C639.452 415.933 639.409 415.758 639.325 415.603H628.26C627.774 415.613 627.296 415.732 626.862 415.951C626.427 416.17 626.046 416.482 625.748 416.866L599.628 447.612V388.515C599.646 388.327 599.622 388.138 599.557 387.961C599.493 387.784 599.389 387.624 599.255 387.492C599.12 387.359 598.959 387.259 598.781 387.198C598.603 387.136 598.413 387.114 598.226 387.135H589.38C589.197 387.11 589.011 387.13 588.837 387.191C588.663 387.253 588.505 387.356 588.378 387.49C588.237 387.62 588.127 387.78 588.059 387.959C587.99 388.138 587.965 388.33 587.984 388.521L587.999 479.747C587.999 480.756 587.999 481.127 589.38 481.127H598.211C598.399 481.148 598.589 481.127 598.767 481.065C598.946 481.003 599.109 480.901 599.243 480.768C599.383 480.639 599.491 480.481 599.559 480.304C599.628 480.127 599.655 479.936 599.638 479.747V462.352L611.104 448.999L629.905 479.745C630.122 480.162 630.449 480.511 630.851 480.754C631.253 480.998 631.716 481.126 632.186 481.125H643.249C643.318 480.966 643.353 480.794 643.353 480.62C643.353 480.447 643.318 480.275 643.249 480.115L618.919 440.174Z" fill="#2D2E80"/>
<path d="M684.586 413.721C680.302 413.698 676.041 414.334 671.951 415.607C668.543 416.533 665.348 418.117 662.548 420.268C662.317 420.531 662.19 420.868 662.19 421.217C662.19 421.566 662.317 421.904 662.548 422.166L666.308 428.591C666.308 429.342 667.419 429.342 668.204 428.591C670.273 427.155 672.531 426.008 674.912 425.183C677.96 424.195 681.152 423.729 684.357 423.804C688.801 423.312 693.276 424.431 696.965 426.957C698.217 428.271 699.167 429.842 699.75 431.561C700.333 433.279 700.534 435.104 700.34 436.908V441.693C700.373 441.812 700.372 441.937 700.34 442.056C700.307 442.175 700.244 442.283 700.155 442.368C700.07 442.454 699.964 442.518 699.848 442.555C699.733 442.592 699.611 442.6 699.492 442.578H684.466C677.759 442.174 671.094 443.891 665.418 447.486C663.053 449.28 661.18 451.641 659.971 454.35C658.761 457.06 658.254 460.03 658.499 462.987C658.435 465.975 659.024 468.941 660.225 471.679C661.309 474.11 662.924 476.268 664.954 477.992C666.984 479.716 669.376 480.964 671.953 481.641C674.814 482.512 677.792 482.935 680.783 482.897C685.139 483.054 689.472 482.192 693.436 480.38C696.321 478.977 698.79 476.848 700.602 474.201V479.998C700.585 480.183 700.609 480.37 700.673 480.546C700.736 480.721 700.838 480.881 700.97 481.013C701.101 481.145 701.259 481.247 701.434 481.312C701.609 481.376 701.797 481.402 701.983 481.387H710.212C710.4 481.408 710.591 481.385 710.769 481.323C710.948 481.26 711.111 481.159 711.245 481.026C711.379 480.893 711.481 480.731 711.545 480.553C711.609 480.376 711.633 480.186 711.615 479.998V436.149C711.922 432.986 711.539 429.794 710.494 426.793C709.448 423.791 707.764 421.052 705.558 418.762C699.408 414.603 691.957 412.812 684.586 413.721V413.721ZM699.49 460.09C699.569 461.922 699.208 463.748 698.438 465.413C697.669 467.079 696.514 468.537 695.067 469.666C691.358 472.177 686.912 473.373 682.442 473.062C678.847 473.285 675.274 472.36 672.24 470.421C671.033 469.55 670.067 468.389 669.431 467.045C668.795 465.701 668.511 464.218 668.603 462.735C668.464 461.128 668.753 459.514 669.441 458.055C670.128 456.596 671.188 455.344 672.515 454.427C676.402 452.468 680.748 451.597 685.09 451.907H697.716C698.347 451.907 698.594 451.907 698.594 452.788L699.49 460.09Z" fill="#2D2E80"/>
<path d="M904.947 431.612C903.337 426.255 899.97 421.594 895.39 418.377C890.418 415.328 884.697 413.713 878.862 413.713C873.027 413.713 867.306 415.328 862.334 418.377C857.664 421.533 854.237 426.213 852.64 431.616C851.89 433.956 851.343 436.358 851.007 438.792C850.763 441.979 850.758 445.18 850.991 448.368C850.76 451.556 850.76 454.757 850.991 457.945C851.326 460.383 851.872 462.788 852.625 465.131C854.282 470.503 857.696 475.165 862.318 478.37C867.294 481.419 873.017 483.034 878.854 483.034C884.692 483.034 890.415 481.419 895.39 478.37C899.968 475.15 903.333 470.49 904.947 465.135C905.721 462.798 906.266 460.392 906.579 457.951C906.817 454.764 906.833 451.564 906.625 448.375C906.83 445.184 906.82 441.983 906.594 438.794C906.268 436.358 905.716 433.957 904.945 431.622L904.947 431.612ZM894.99 456.183C894.782 458.112 894.363 460.012 893.741 461.849C892.787 464.95 890.838 467.651 888.195 469.536C885.43 471.358 882.167 472.28 878.856 472.177C875.511 472.28 872.215 471.358 869.409 469.536C866.768 467.639 864.807 464.945 863.815 461.849C863.308 459.99 862.939 458.096 862.707 456.183C862.584 453.578 862.584 450.971 862.707 448.365C862.538 445.761 862.538 443.149 862.707 440.546C862.974 438.64 863.348 436.751 863.831 434.888C864.865 431.827 866.8 429.148 869.38 427.201C872.19 425.37 875.495 424.445 878.849 424.552C882.159 424.451 885.421 425.373 888.188 427.193C890.818 429.094 892.767 431.788 893.749 434.88C894.359 436.72 894.772 438.619 894.982 440.546V448.365C894.982 451.636 894.627 454.165 894.489 456.183H894.99Z" fill="#2D2E80"/>
<path d="M949.731 470.671H947.065C946.156 470.766 945.238 470.67 944.37 470.387C943.501 470.105 942.701 469.643 942.023 469.031C940.774 467.421 940.189 465.393 940.39 463.365V387.756C940.39 386.743 940.39 386.376 938.987 386.376H930.172C929.984 386.354 929.792 386.375 929.613 386.438C929.435 386.501 929.274 386.604 929.142 386.739C929.008 386.872 928.905 387.033 928.841 387.21C928.777 387.388 928.753 387.577 928.772 387.764V463.365C928.381 468.092 929.734 472.798 932.578 476.596C934.256 478.151 936.248 479.327 938.421 480.044C940.593 480.761 942.897 481.003 945.171 480.752H949.838C950.025 480.773 950.215 480.752 950.391 480.689C950.568 480.626 950.727 480.524 950.858 480.39C950.995 480.259 951.101 480.099 951.17 479.922C951.238 479.745 951.267 479.554 951.252 479.365V471.424C951.138 471.138 950.923 470.902 950.648 470.763C950.372 470.623 950.055 470.588 949.756 470.665L949.731 470.671Z" fill="#2D2E80"/>
<path d="M816.676 416.239C812.739 414.393 808.414 413.528 804.07 413.719H797.537C793.463 413.613 789.427 414.524 785.794 416.367C783.747 417.574 781.908 419.105 780.352 420.9C778.773 419.087 776.898 417.554 774.806 416.367C771.174 414.518 767.138 413.605 763.063 413.711H756.53C752.185 413.526 747.859 414.395 743.922 416.243C741.829 417.31 739.956 418.761 738.399 420.52C734.162 425.588 731.994 432.067 732.327 438.662V480.119C732.309 480.495 732.436 480.863 732.682 481.147C732.816 481.28 732.979 481.382 733.158 481.445C733.336 481.507 733.526 481.529 733.714 481.509H742.653C743.562 481.509 743.93 481.509 743.93 480.119V439.543C743.791 438.372 743.791 437.188 743.93 436.017C743.868 435.813 743.868 435.595 743.93 435.391C744.476 432.959 745.7 430.732 747.459 428.965C748.858 427.551 750.535 426.439 752.383 425.701C754.231 424.962 756.211 424.612 758.201 424.673C760.195 424.63 762.177 424.988 764.03 425.726C765.883 426.463 767.569 427.565 768.988 428.965C770.757 430.851 772.028 433.146 772.687 435.645V439.545V480.122C772.666 480.31 772.69 480.5 772.754 480.678C772.819 480.856 772.923 481.017 773.059 481.149C773.186 481.283 773.341 481.386 773.515 481.449C773.689 481.512 773.877 481.533 774.06 481.511H783.03C783.22 481.529 783.413 481.505 783.594 481.442C783.775 481.379 783.94 481.277 784.078 481.144C784.32 480.86 784.441 480.492 784.417 480.119V439.543V436.139C784.34 435.937 784.34 435.715 784.417 435.513C784.979 433.026 786.241 430.751 788.054 428.957C789.455 427.55 791.129 426.445 792.974 425.708C794.818 424.971 796.796 424.619 798.782 424.673C800.791 424.625 802.788 424.979 804.657 425.717C806.526 426.454 808.228 427.559 809.662 428.965C811.299 430.817 812.495 433.015 813.16 435.394C813.206 435.394 813.204 435.394 813.204 436.021C813.25 437.188 813.25 438.386 813.204 439.547V480.124C813.174 480.308 813.187 480.497 813.243 480.675C813.299 480.853 813.397 481.015 813.528 481.149C813.665 481.282 813.831 481.383 814.012 481.446C814.193 481.509 814.386 481.531 814.576 481.511H823.407C823.59 481.535 823.777 481.514 823.952 481.451C824.126 481.388 824.282 481.284 824.408 481.149C824.545 481.018 824.65 480.857 824.715 480.68C824.779 480.502 824.802 480.312 824.78 480.124V438.922C825.128 432.327 822.964 425.844 818.724 420.776C818.272 419.17 817.582 417.641 816.676 416.239V416.239Z" fill="#2D2E80"/>
<path d="M979.288 61.3975H940.224C939.832 61.3975 939.514 61.7151 939.514 62.107V103.405C939.514 103.797 939.832 104.114 940.224 104.114H979.288C979.68 104.114 979.998 103.797 979.998 103.405V62.107C979.998 61.7151 979.68 61.3975 979.288 61.3975Z" fill="#2D2E80"/>
<path d="M923.076 61.3975H884.013C883.621 61.3975 883.303 61.7151 883.303 62.107V103.405C883.303 103.797 883.621 104.114 884.013 104.114H923.076C923.469 104.114 923.787 103.797 923.787 103.405V62.107C923.787 61.7151 923.469 61.3975 923.076 61.3975Z" fill="#2D2E80"/>
</g>
<defs>
<clipPath id="clip0_11530_596753">
<rect width="980" height="483.028" fill="white"/>
</clipPath>
</defs>
</svg>
